<?xml version="1.0" encoding="UTF-8" standalone="no"?>
<!DOCTYPE svg PUBLIC "-//W3C//DTD SVG 1.1//EN" "http://www.w3.org/Graphics/SVG/1.1/DTD/svg11.dtd">
<svg width="100%" height="100%" viewBox="0 0 2909 656" version="1.1" xmlns="http://www.w3.org/2000/svg" xmlns:xlink="http://www.w3.org/1999/xlink" xml:space="preserve" xmlns:serif="http://www.serif.com/" style="fill-rule:evenodd;clip-rule:evenodd;stroke-linejoin:round;stroke-miterlimit:2;">
    <g transform="matrix(1,0,0,1,-3112.34,0)">
        <g id="readynorm-logo-sideways-statements" transform="matrix(0.841967,0,0,0.239988,3112.34,0)">
            <rect x="0" y="0" width="3454.84" height="2730.51" style="fill:none;"/>
            <g transform="matrix(0.510735,0,0,1.79185,-395.709,-2319.55)">
                <g transform="matrix(1,0,0,1,45.0677,1294.71)">
                    <path d="M1497.49,651.875C1520.6,696.41 1543.71,740.945 1566.82,785.479C1554.91,843.134 1543.01,900.788 1531.11,958.443C1480.49,862.059 1429.87,765.675 1379.25,669.292C1337.98,672.413 1295.77,674.29 1273.73,674.834L1260.11,675.038L1236.65,675.038C1222.75,742.413 1208.84,809.787 1194.93,877.162L1079.23,877.162C1112.55,715.771 1145.86,554.381 1179.18,392.99L1422.7,392.99C1444.2,392.99 1515.28,393.232 1553.49,406.035C1571.28,411.997 1595.29,424.344 1610.56,452.438C1626.71,482.154 1623.25,512.139 1619.82,528.73C1612.75,562.963 1594.89,593.956 1563.33,618.728C1536.63,639.675 1505.88,649.306 1497.49,651.875ZM1462.44,584.328C1472.28,579.038 1478.83,572.565 1480.08,571.334C1488.6,562.933 1496.05,550.814 1499.31,535.005C1500.18,530.771 1504.45,510.683 1492.02,495.538C1479.42,480.193 1456.41,477.136 1452.35,476.548C1438.62,474.896 1374.99,474.896 1368.27,474.896L1277.97,474.896C1269.52,515.849 1261.06,556.803 1252.61,597.756L1338.21,597.756C1347.08,597.756 1420.48,598.024 1443.41,591.811C1453.72,589.018 1461,585.103 1462.44,584.328ZM1294.73,573.112C1299.4,550.446 1304.08,527.78 1308.76,505.115L1421.34,505.115C1431.38,524.472 1441.42,543.829 1451.47,563.186C1450.53,563.753 1445.89,566.568 1438.85,568.476C1422.73,572.843 1374.81,573.112 1343.3,573.112C1327.11,573.112 1310.92,573.112 1294.73,573.112ZM1377.3,693.787C1356.97,792.287 1336.63,890.787 1316.3,989.286L1208.81,989.286C1228.75,892.685 1248.69,796.083 1268.64,699.482C1291.07,698.937 1334.6,697.019 1377.3,693.787ZM1659.84,505.115L1763.35,505.115C1730.04,666.505 1696.72,827.896 1663.4,989.286L1559.88,989.286C1593.2,827.896 1626.52,666.505 1659.84,505.115Z"/>
                </g>
                <g transform="matrix(17.9983,0,0,17.9983,710.198,-852.679)">
                    <path d="M41.026,191.115C41.026,191.115 33.087,184.714 30.032,183.704C17.841,179.728 14.489,170.437 15.552,164.586C16.127,161.299 17.307,151.134 17.307,148.018C17.307,147.143 16.832,146.167 16.351,145.281C15.44,143.601 14.303,142.246 14.303,142.246L12.977,140.668L19.972,130.839L65.387,130.839L72.382,140.668L71.056,142.246C71.056,142.246 69.919,143.601 69.008,145.281C68.527,146.167 68.052,147.143 68.052,148.018C68.052,151.132 69.234,161.299 69.838,164.582L69.84,164.591C70.872,170.437 67.518,179.728 55.327,183.705C52.265,184.722 44.333,191.115 44.333,191.115L42.679,192.425L41.026,191.115ZM42.68,185.68C45.482,183.575 51.107,179.491 53.671,178.644L53.676,178.643C62.343,175.817 65.327,169.684 64.598,165.526C63.96,162.052 62.728,151.31 62.728,148.018C62.728,146.355 63.413,144.429 64.327,142.744C64.781,141.905 65.28,141.129 65.722,140.492L62.641,136.163L22.718,136.163L19.637,140.492C20.079,141.129 20.578,141.905 21.032,142.744C21.946,144.429 22.631,146.355 22.631,148.018C22.631,151.309 21.401,162.055 20.794,165.523L20.792,165.533C20.032,169.689 23.017,175.817 31.691,178.644L31.695,178.646C34.254,179.49 39.878,183.575 42.68,185.68Z"/>
                </g>
            </g>
            <g transform="matrix(0.478343,0,0,1.67821,524.017,-2223.66)">
                <path d="M681.627,1808.29L711.725,1669.13L775.047,1669.13C820.779,1669.13 845.796,1689.07 845.796,1728.94C845.796,1775.06 811.007,1808.29 755.503,1808.29L681.627,1808.29ZM571.791,1546.79L451.791,2110.82L617.523,2110.82L657.784,1921.64L716.024,1921.64L769.184,2110.82L941.951,2110.82L879.411,1906C965.404,1872.39 1011.92,1795 1011.92,1715.26C1011.92,1618.71 944.297,1546.79 825.47,1546.79L571.791,1546.79Z" style="fill-rule:nonzero;"/>
                <path d="M1167.1,1844.25C1177.26,1803.2 1211.27,1775.45 1251.53,1775.45C1288.66,1775.45 1314.46,1798.9 1314.46,1831.74C1314.46,1836.04 1314.07,1842.29 1313.29,1844.25L1167.1,1844.25ZM1217.91,2121.38C1332.83,2121.38 1414.91,2060.79 1437.19,1970.11L1293.35,1970.11C1285.92,1995.12 1259.74,2012.32 1225.73,2012.32C1179.21,2012.32 1151.85,1981.05 1151.85,1941.18C1151.85,1937.28 1152.24,1932.98 1153.03,1928.67L1446.96,1928.67C1452.44,1906.79 1454.78,1877.86 1454.78,1854.41C1454.78,1741.84 1374.26,1668.35 1258.56,1668.35C1111.59,1668.35 1013.87,1776.23 1013.87,1923.99C1013.87,2048.28 1094.39,2121.38 1217.91,2121.38Z" style="fill-rule:nonzero;"/>
                <path d="M1671.33,2012.32C1642.4,2012.32 1622.47,1998.25 1622.47,1977.14C1622.47,1952.52 1645.92,1935.71 1681.1,1934.93L1747.94,1933.37L1742.08,1961.12C1735.82,1990.43 1705.34,2012.32 1671.33,2012.32ZM1599.02,2117.08C1653.35,2117.08 1697.52,2094.02 1718.62,2060.01L1721.75,2060.01L1710.81,2110.82L1861.3,2110.82L1919.93,1834.87C1921.88,1826.27 1923.44,1811.02 1923.44,1800.08C1923.44,1721.51 1845.66,1668.35 1731.13,1668.35C1620.9,1668.35 1539.6,1723.47 1522.4,1813.76L1661.95,1813.76C1669.77,1791.09 1691.26,1779.36 1720.19,1779.36C1751.46,1779.36 1772.57,1792.65 1772.57,1812.59C1772.57,1815.32 1772.17,1818.06 1771,1824.7L1765.92,1849.72L1671.72,1851.67C1548.98,1854.41 1473.55,1910.69 1473.55,2000.21C1473.55,2067.44 1527.49,2117.08 1599.02,2117.08Z" style="fill-rule:nonzero;"/>
                <path d="M2097.78,2117.08C2156.02,2117.08 2199.8,2095.19 2231.46,2050.24L2234.58,2050.24L2221.68,2110.82L2372.56,2110.82L2492.95,1546.79L2337.77,1546.79L2294.78,1748.48L2291.65,1748.48C2277.19,1700.79 2232.63,1673.04 2170.09,1673.04C2046.18,1673.04 1954.32,1792.65 1954.32,1953.3C1954.32,2054.54 2009.44,2117.08 2097.78,2117.08ZM2174.78,1999.42C2138.82,1999.42 2114.58,1970.11 2114.58,1926.72C2114.58,1853.24 2156.02,1794.6 2207.61,1794.6C2243.57,1794.6 2267.42,1823.53 2267.42,1866.92C2267.42,1937.66 2224.42,1999.42 2174.78,1999.42Z" style="fill-rule:nonzero;"/>
                <path d="M2472.63,2269.13C2604.74,2269.13 2684.48,2221.83 2746.24,2103.79L2968.26,1679.3L2803.31,1679.3L2664.94,1995.12L2661.81,1995.12L2662.2,1679.3L2503.12,1679.3L2546.5,2103.01C2546.89,2104.96 2546.89,2108.87 2546.89,2112C2546.89,2137.4 2524.22,2149.91 2479.66,2149.91L2438.23,2149.91L2413.21,2269.13L2472.63,2269.13Z" style="fill-rule:nonzero;"/>
                <path d="M3080.05,2110.82L3145.33,1801.25L3148.45,1801.25L3302.07,2110.82L3427.15,2110.82L3547.15,1546.79L3388.84,1546.79L3323.57,1856.36L3320.44,1856.36L3166.83,1546.79L3041.74,1546.79L2921.74,2110.82L3080.05,2110.82Z" style="fill-rule:nonzero;"/>
                <path d="M3751.58,2003.33C3716.4,2003.33 3692.95,1970.89 3692.95,1922.81C3692.95,1844.64 3732.43,1786.79 3785.97,1786.79C3821.15,1786.79 3844.22,1818.84 3844.22,1867.31C3844.22,1943.92 3803.96,2003.33 3751.58,2003.33ZM3793.79,1668.35C3642.91,1668.35 3535.81,1775.45 3535.81,1925.94C3535.81,2042.81 3620.24,2121.77 3744.54,2121.77C3895.42,2121.77 4002.52,2014.67 4002.52,1864.18C4002.52,1747.31 3918.09,1668.35 3793.79,1668.35Z" style="fill-rule:nonzero;"/>
                <path d="M4009.17,2110.82L4164.34,2110.82L4212.03,1890.37C4224.93,1830.96 4262.06,1802.42 4313.27,1802.42C4339.46,1802.42 4358.22,1809.07 4378.15,1818.45L4407.47,1684.38C4390.27,1676.56 4372.68,1673.04 4348.06,1673.04C4301.54,1673.04 4263.24,1701.58 4243.69,1741.84L4240.57,1741.84L4253.07,1679.3L4101.8,1679.3L4009.17,2110.82Z" style="fill-rule:nonzero;"/>
                <path d="M4358.61,2110.82L4512.62,2110.82L4566.95,1854.8C4575.94,1812.98 4599.78,1788.74 4631.44,1788.74C4659.59,1788.74 4677.57,1807.89 4677.57,1837.99C4677.57,1846.2 4676.78,1854.41 4674.83,1864.18L4623.23,2110.82L4770.2,2110.82L4823.76,1854.41C4832.35,1813.37 4856.59,1788.74 4888.25,1788.74C4916.39,1788.74 4934.37,1807.89 4934.37,1837.99C4934.37,1846.2 4933.59,1854.41 4931.64,1864.18L4880.04,2110.82L5034.05,2110.82L5090.33,1842.68C5094.24,1823.92 5096.2,1805.94 5096.2,1789.91C5096.2,1719.16 5046.16,1668.35 4976.59,1668.35C4914.83,1668.35 4864.41,1697.67 4831.96,1744.96L4828.84,1744.96C4813.98,1697.28 4772.94,1668.35 4720.56,1668.35C4666.62,1668.35 4616.2,1698.06 4588.45,1747.7L4585.32,1747.7L4600.17,1679.3L4450.47,1679.3L4358.61,2110.82Z" style="fill-rule:nonzero;"/>
            </g>
            <g transform="matrix(0.213968,0,0,0.750681,649.406,670.212)">
                <path d="M468.99,1944.7C469.381,2056.1 558.892,2120.6 710.943,2120.6C859.867,2120.6 961.495,2046.72 961.495,1927.89C961.495,1846.59 917.717,1804.38 816.48,1775.06L754.721,1757.08C709.379,1743.79 693.744,1728.15 693.744,1705.48C693.744,1678.9 721.887,1659.36 765.275,1659.36C812.18,1659.36 843.841,1681.64 845.014,1715.26L996.283,1715.26C995.502,1603.47 906.772,1537.02 761.366,1537.02C624.559,1537.02 525.276,1612.07 525.276,1726.98C525.276,1803.99 575.308,1854.8 669.51,1883.33L728.532,1901.31C781.692,1917.73 792.245,1929.85 792.245,1950.56C792.245,1978.71 762.148,1997.86 714.07,1997.86C667.555,1997.86 630.422,1975.58 625.732,1944.7L468.99,1944.7Z" style="fill-rule:nonzero;"/>
                <path d="M1199.93,2117.08C1224.16,2117.08 1251.53,2114.73 1263.25,2111.61L1286.7,2005.29C1282.41,2006.85 1274.98,2007.63 1258.56,2007.63C1222.99,2007.63 1208.53,1998.64 1208.53,1976.36C1208.53,1971.67 1209.31,1963.07 1210.48,1959.16L1243.32,1805.55L1327.36,1805.55L1351.59,1692.19L1267.16,1692.19L1289.05,1589.39L1134.26,1589.39L1112.37,1692.19L1048.27,1692.19L1023.25,1805.55L1087.75,1805.55L1052.96,1972.45C1049.05,1992 1048.27,2009.2 1048.27,2020.14C1048.27,2084.24 1103.78,2117.08 1199.93,2117.08Z" style="fill-rule:nonzero;"/>
                <path d="M1530.22,2012.32C1501.3,2012.32 1481.36,1998.25 1481.36,1977.14C1481.36,1952.52 1504.82,1935.71 1539.99,1934.93L1606.83,1933.37L1600.97,1961.12C1594.72,1990.43 1564.23,2012.32 1530.22,2012.32ZM1457.91,2117.08C1512.24,2117.08 1556.41,2094.02 1577.52,2060.01L1580.64,2060.01L1569.7,2110.82L1720.19,2110.82L1778.82,1834.87C1780.77,1826.27 1782.34,1811.02 1782.34,1800.08C1782.34,1721.51 1704.55,1668.35 1590.03,1668.35C1479.8,1668.35 1398.5,1723.47 1381.3,1813.76L1520.84,1813.76C1528.66,1791.09 1550.16,1779.36 1579.08,1779.36C1610.35,1779.36 1631.46,1792.65 1631.46,1812.59C1631.46,1815.32 1631.07,1818.06 1629.9,1824.7L1624.81,1849.72L1530.61,1851.67C1407.88,1854.41 1332.44,1910.69 1332.44,2000.21C1332.44,2067.44 1386.38,2117.08 1457.91,2117.08Z" style="fill-rule:nonzero;"/>
                <path d="M1781.95,2110.82L1935.95,2110.82L1989.89,1857.54C1998.49,1816.49 2029.37,1788.74 2065.72,1788.74C2099.34,1788.74 2123.18,1810.24 2123.18,1840.34C2123.18,1848.55 2122.4,1856.36 2120.45,1866.92L2069.24,2110.82L2222.86,2110.82L2279.14,1843.07C2283.05,1823.92 2285.01,1806.33 2285.01,1790.31C2285.01,1716.82 2233.41,1668.35 2155.24,1668.35C2097.78,1668.35 2043.05,1695.32 2012.57,1744.57L2009.44,1744.57L2023.51,1679.3L1873.8,1679.3L1781.95,2110.82Z" style="fill-rule:nonzero;"/>
                <path d="M2459.34,2117.08C2517.58,2117.08 2561.36,2095.19 2593.02,2050.24L2596.14,2050.24L2583.24,2110.82L2734.12,2110.82L2854.51,1546.79L2699.34,1546.79L2656.34,1748.48L2653.21,1748.48C2638.75,1700.79 2594.19,1673.04 2531.65,1673.04C2407.74,1673.04 2315.89,1792.65 2315.89,1953.3C2315.89,2054.54 2371,2117.08 2459.34,2117.08ZM2536.34,1999.42C2500.38,1999.42 2476.14,1970.11 2476.14,1926.72C2476.14,1853.24 2517.58,1794.6 2569.17,1794.6C2605.14,1794.6 2628.98,1823.53 2628.98,1866.92C2628.98,1937.66 2585.98,1999.42 2536.34,1999.42Z" style="fill-rule:nonzero;"/>
                <path d="M3012.04,2012.32C2983.11,2012.32 2963.18,1998.25 2963.18,1977.14C2963.18,1952.52 2986.63,1935.71 3021.81,1934.93L3088.65,1933.37L3082.79,1961.12C3076.53,1990.43 3046.04,2012.32 3012.04,2012.32ZM2939.73,2117.08C2994.06,2117.08 3038.23,2094.02 3059.33,2060.01L3062.46,2060.01L3051.52,2110.82L3202,2110.82L3260.64,1834.87C3262.59,1826.27 3264.15,1811.02 3264.15,1800.08C3264.15,1721.51 3186.37,1668.35 3071.84,1668.35C2961.62,1668.35 2880.31,1723.47 2863.11,1813.76L3002.66,1813.76C3010.47,1791.09 3031.97,1779.36 3060.9,1779.36C3092.17,1779.36 3113.28,1792.65 3113.28,1812.59C3113.28,1815.32 3112.88,1818.06 3111.71,1824.7L3106.63,1849.72L3012.43,1851.67C2889.69,1854.41 2814.25,1910.69 2814.25,2000.21C2814.25,2067.44 2868.2,2117.08 2939.73,2117.08Z" style="fill-rule:nonzero;"/>
                <path d="M3263.76,2110.82L3418.94,2110.82L3466.63,1890.37C3479.53,1830.96 3516.66,1802.42 3567.87,1802.42C3594.05,1802.42 3612.82,1809.07 3632.75,1818.45L3662.07,1684.38C3644.87,1676.56 3627.28,1673.04 3602.65,1673.04C3556.14,1673.04 3517.83,1701.58 3498.29,1741.84L3495.16,1741.84L3507.67,1679.3L3356.4,1679.3L3263.76,2110.82Z" style="fill-rule:nonzero;"/>
                <path d="M3784.02,2117.08C3842.26,2117.08 3886.04,2095.19 3917.7,2050.24L3920.83,2050.24L3907.93,2110.82L4058.81,2110.82L4179.2,1546.79L4024.02,1546.79L3981.02,1748.48L3977.9,1748.48C3963.43,1700.79 3918.87,1673.04 3856.33,1673.04C3732.43,1673.04 3640.57,1792.65 3640.57,1953.3C3640.57,2054.54 3695.68,2117.08 3784.02,2117.08ZM3861.02,1999.42C3825.06,1999.42 3800.83,1970.11 3800.83,1926.72C3800.83,1853.24 3842.26,1794.6 3893.86,1794.6C3929.82,1794.6 3953.66,1823.53 3953.66,1866.92C3953.66,1937.66 3910.66,1999.42 3861.02,1999.42Z" style="fill-rule:nonzero;"/>
                <path d="M4126.43,2110.82L4281.61,2110.82L4373.46,1679.3L4218.29,1679.3L4126.43,2110.82ZM4317.18,1653.89C4362.13,1653.89 4396.14,1621.45 4396.14,1578.84C4396.14,1536.23 4362.13,1503.79 4317.18,1503.79C4272.23,1503.79 4238.22,1536.23 4238.22,1578.84C4238.22,1621.45 4272.23,1653.89 4317.18,1653.89Z" style="fill-rule:nonzero;"/>
                <path d="M4336.72,2110.82L4725.64,2110.82L4751.05,1992L4573.59,1992L4573.98,1988.87L4788.58,1774.28L4808.9,1679.3L4434.83,1679.3L4409.43,1798.12L4587.66,1798.12L4586.88,1801.25L4353.92,2029.52L4336.72,2110.82Z" style="fill-rule:nonzero;"/>
                <path d="M4958.61,1844.25C4968.77,1803.2 5002.78,1775.45 5043.04,1775.45C5080.17,1775.45 5105.97,1798.9 5105.97,1831.74C5105.97,1836.04 5105.58,1842.29 5104.8,1844.25L4958.61,1844.25ZM5009.42,2121.38C5124.34,2121.38 5206.42,2060.79 5228.7,1970.11L5084.86,1970.11C5077.43,1995.12 5051.24,2012.32 5017.24,2012.32C4970.72,2012.32 4943.36,1981.05 4943.36,1941.18C4943.36,1937.28 4943.75,1932.98 4944.54,1928.67L5238.48,1928.67C5243.95,1906.79 5246.29,1877.86 5246.29,1854.41C5246.29,1741.84 5165.77,1668.35 5050.07,1668.35C4903.1,1668.35 4805.38,1776.23 4805.38,1923.99C4805.38,2048.28 4885.9,2121.38 5009.42,2121.38Z" style="fill-rule:nonzero;"/>
                <path d="M5357.69,2116.3C5402.64,2116.3 5439,2079.95 5439,2034.99C5439,1990.04 5402.64,1953.69 5357.69,1953.69C5312.74,1953.69 5276.39,1990.04 5276.39,2034.99C5276.39,2079.95 5312.74,2116.3 5357.69,2116.3Z" style="fill-rule:nonzero;"/>
                <path d="M6090.98,1979.49L5858.8,1979.49L5878.34,1888.41L6095.67,1888.41L6121.08,1769.59L5903.75,1769.59L5922.9,1678.12L6154.69,1678.12L6182.84,1546.79L5785.31,1546.79L5665.31,2110.82L6063.23,2110.82L6090.98,1979.49Z" style="fill-rule:nonzero;"/>
                <path d="M6360.68,1983.01L6395.08,2110.82L6561.6,2110.82L6483.03,1895.84L6655.8,1679.3L6485.37,1679.3L6402.9,1807.11L6399.77,1807.11L6365.38,1679.3L6198.86,1679.3L6277.43,1894.28L6104.66,2110.82L6275.08,2110.82L6357.56,1983.01L6360.68,1983.01Z" style="fill-rule:nonzero;"/>
                <path d="M6766.41,1844.25C6776.58,1803.2 6810.58,1775.45 6850.85,1775.45C6887.98,1775.45 6913.78,1798.9 6913.78,1831.74C6913.78,1836.04 6913.39,1842.29 6912.6,1844.25L6766.41,1844.25ZM6817.23,2121.38C6932.15,2121.38 7014.23,2060.79 7036.51,1970.11L6892.67,1970.11C6885.24,1995.12 6859.05,2012.32 6825.05,2012.32C6778.53,2012.32 6751.17,1981.05 6751.17,1941.18C6751.17,1937.28 6751.56,1932.98 6752.34,1928.67L7046.28,1928.67C7051.76,1906.79 7054.1,1877.86 7054.1,1854.41C7054.1,1741.84 6973.58,1668.35 6857.88,1668.35C6710.91,1668.35 6613.19,1776.23 6613.19,1923.99C6613.19,2048.28 6693.71,2121.38 6817.23,2121.38Z" style="fill-rule:nonzero;"/>
                <path d="M7339.44,1668.35C7188.17,1668.35 7094.75,1770.76 7094.75,1936.49C7094.75,2049.07 7173.71,2121.77 7296.44,2121.77C7415.66,2121.77 7504.39,2047.89 7517.29,1938.45L7369.54,1938.45C7361.33,1976.36 7337.1,1998.64 7303.48,1998.64C7270.65,1998.64 7249.15,1971.28 7249.15,1929.85C7249.15,1847.76 7282.76,1791.48 7331.62,1791.48C7364.85,1791.48 7385.57,1814.15 7385.57,1850.11L7533.32,1850.11C7533.71,1847.76 7533.71,1845.81 7533.71,1829C7533.71,1736.75 7451.23,1668.35 7339.44,1668.35Z" style="fill-rule:nonzero;"/>
                <path d="M8060.22,1679.3L7904.65,1679.3L7852.27,1925.55C7842.89,1970.11 7815.92,1995.91 7779.18,1995.91C7742.44,1995.91 7721.33,1974.8 7721.33,1938.06C7721.33,1929.85 7722.11,1922.42 7723.28,1915L7773.71,1679.3L7618.92,1679.3L7563.41,1940.4C7559.9,1956.43 7557.94,1976.36 7557.94,1994.73C7557.94,2072.13 7610.71,2121.77 7693.19,2121.77C7753.38,2121.77 7803.8,2091.67 7829.6,2040.47L7832.73,2040.47L7817.88,2110.82L7968.36,2110.82L8060.22,1679.3Z" style="fill-rule:nonzero;"/>
                <path d="M8253.7,2117.08C8277.94,2117.08 8305.3,2114.73 8317.03,2111.61L8340.48,2005.29C8336.18,2006.85 8328.75,2007.63 8312.34,2007.63C8276.76,2007.63 8262.3,1998.64 8262.3,1976.36C8262.3,1971.67 8263.09,1963.07 8264.26,1959.16L8297.09,1805.55L8381.13,1805.55L8405.36,1692.19L8320.93,1692.19L8342.82,1589.39L8188.04,1589.39L8166.15,1692.19L8102.04,1692.19L8077.03,1805.55L8141.52,1805.55L8106.73,1972.45C8102.82,1992 8102.04,2009.2 8102.04,2020.14C8102.04,2084.24 8157.55,2117.08 8253.7,2117.08Z" style="fill-rule:nonzero;"/>
                <path d="M8562.11,1844.25C8572.27,1803.2 8606.27,1775.45 8646.53,1775.45C8683.67,1775.45 8709.47,1798.9 8709.47,1831.74C8709.47,1836.04 8709.08,1842.29 8708.29,1844.25L8562.11,1844.25ZM8612.92,2121.38C8727.84,2121.38 8809.92,2060.79 8832.2,1970.11L8688.36,1970.11C8680.93,1995.12 8654.74,2012.32 8620.74,2012.32C8574.22,2012.32 8546.86,1981.05 8546.86,1941.18C8546.86,1937.28 8547.25,1932.98 8548.03,1928.67L8841.97,1928.67C8847.45,1906.79 8849.79,1877.86 8849.79,1854.41C8849.79,1741.84 8769.27,1668.35 8653.57,1668.35C8506.6,1668.35 8408.88,1776.23 8408.88,1923.99C8408.88,2048.28 8489.4,2121.38 8612.92,2121.38Z" style="fill-rule:nonzero;"/>
                <path d="M8961.19,2116.3C9006.14,2116.3 9042.49,2079.95 9042.49,2034.99C9042.49,1990.04 9006.14,1953.69 8961.19,1953.69C8916.24,1953.69 8879.89,1990.04 8879.89,2034.99C8879.89,2079.95 8916.24,2116.3 8961.19,2116.3Z" style="fill-rule:nonzero;"/>
                <path d="M9434.54,2110.82L9554.54,1546.79L9388.81,1546.79L9268.81,2110.82L9434.54,2110.82Z" style="fill-rule:nonzero;"/>
                <path d="M9508.81,2110.82L9662.82,2110.82L9717.15,1854.8C9726.14,1812.98 9749.98,1788.74 9781.64,1788.74C9809.79,1788.74 9827.77,1807.89 9827.77,1837.99C9827.77,1846.2 9826.99,1854.41 9825.03,1864.18L9773.43,2110.82L9920.41,2110.82L9973.95,1854.41C9982.55,1813.37 10006.8,1788.74 10038.5,1788.74C10066.6,1788.74 10084.6,1807.89 10084.6,1837.99C10084.6,1846.2 10083.8,1854.41 10081.8,1864.18L10030.2,2110.82L10184.2,2110.82L10240.5,1842.68C10244.4,1823.92 10246.4,1805.94 10246.4,1789.91C10246.4,1719.16 10196.4,1668.35 10126.8,1668.35C10065,1668.35 10014.6,1697.67 9982.16,1744.96L9979.04,1744.96C9964.18,1697.28 9923.14,1668.35 9870.76,1668.35C9816.82,1668.35 9766.4,1698.06 9738.65,1747.7L9735.52,1747.7L9750.37,1679.3L9600.67,1679.3L9508.81,2110.82Z" style="fill-rule:nonzero;"/>
                <path d="M10503.2,1995.12C10466.9,1995.12 10443,1966.59 10443,1922.81C10443,1852.06 10486.4,1790.31 10535.6,1790.31C10572,1790.31 10595.8,1819.23 10595.8,1862.62C10595.8,1936.1 10554.4,1995.12 10503.2,1995.12ZM10371.5,2248.8L10417.6,2033.82L10420.3,2033.82C10437.5,2087.37 10480.9,2117.08 10541.9,2117.08C10665.4,2117.08 10756.1,1997.86 10756.1,1836.43C10756.1,1735.19 10701.4,1673.04 10613,1673.04C10559.1,1673.04 10512.6,1694.15 10479,1739.49L10475.8,1739.49L10488.7,1679.3L10337.9,1679.3L10216.7,2248.8L10371.5,2248.8Z" style="fill-rule:nonzero;"/>
                <path d="M10760,2110.82L10915.2,2110.82L10962.9,1890.37C10975.8,1830.96 11012.9,1802.42 11064.1,1802.42C11090.3,1802.42 11109.1,1809.07 11129,1818.45L11158.3,1684.38C11141.1,1676.56 11123.5,1673.04 11098.9,1673.04C11052.4,1673.04 11014.1,1701.58 10994.5,1741.84L10991.4,1741.84L11003.9,1679.3L10852.6,1679.3L10760,2110.82Z" style="fill-rule:nonzero;"/>
                <path d="M11355.7,2003.33C11320.5,2003.33 11297.1,1970.89 11297.1,1922.81C11297.1,1844.64 11336.6,1786.79 11390.1,1786.79C11425.3,1786.79 11448.3,1818.84 11448.3,1867.31C11448.3,1943.92 11408.1,2003.33 11355.7,2003.33ZM11397.9,1668.35C11247,1668.35 11139.9,1775.45 11139.9,1925.94C11139.9,2042.81 11224.4,2121.77 11348.7,2121.77C11499.5,2121.77 11606.6,2014.67 11606.6,1864.18C11606.6,1747.31 11522.2,1668.35 11397.9,1668.35Z" style="fill-rule:nonzero;"/>
                <path d="M11652.8,1678.9L11695.4,2110.82L11876.7,2110.82L12107.8,1678.9L11942.8,1678.9L11814.2,1978.71L11811.1,1978.71L11808.7,1678.9L11652.8,1678.9Z" style="fill-rule:nonzero;"/>
                <path d="M12227.8,1844.25C12237.9,1803.2 12271.9,1775.45 12312.2,1775.45C12349.3,1775.45 12375.1,1798.9 12375.1,1831.74C12375.1,1836.04 12374.7,1842.29 12373.9,1844.25L12227.8,1844.25ZM12278.6,2121.38C12393.5,2121.38 12475.6,2060.79 12497.9,1970.11L12354,1970.11C12346.6,1995.12 12320.4,2012.32 12286.4,2012.32C12239.9,2012.32 12212.5,1981.05 12212.5,1941.18C12212.5,1937.28 12212.9,1932.98 12213.7,1928.67L12507.6,1928.67C12513.1,1906.79 12515.4,1877.86 12515.4,1854.41C12515.4,1741.84 12434.9,1668.35 12319.2,1668.35C12172.2,1668.35 12074.5,1776.23 12074.5,1923.99C12074.5,2048.28 12155.1,2121.38 12278.6,2121.38Z" style="fill-rule:nonzero;"/>
                <path d="M12626.8,2116.3C12671.8,2116.3 12708.1,2079.95 12708.1,2034.99C12708.1,1990.04 12671.8,1953.69 12626.8,1953.69C12581.9,1953.69 12545.5,1990.04 12545.5,2034.99C12545.5,2079.95 12581.9,2116.3 12626.8,2116.3Z" style="fill-rule:nonzero;"/>
            </g>
        </g>
    </g>
</svg>
