<?xml version="1.0" encoding="UTF-8" standalone="no"?>
<!DOCTYPE svg PUBLIC "-//W3C//DTD SVG 1.1//EN" "http://www.w3.org/Graphics/SVG/1.1/DTD/svg11.dtd">
<svg width="100%" height="100%" viewBox="0 0 2251 2251" version="1.1" xmlns="http://www.w3.org/2000/svg" xmlns:xlink="http://www.w3.org/1999/xlink" xml:space="preserve" xmlns:serif="http://www.serif.com/" style="fill-rule:evenodd;clip-rule:evenodd;stroke-linejoin:round;stroke-miterlimit:2;">
    <g transform="matrix(1,0,0,1,-2424,-766)">
        <g id="readynorm-logo-main" transform="matrix(1,0,0,1,-0.545953,0)">
            <rect x="2424.55" y="766" width="2250.65" height="2250.65" style="fill:none;"/>
            <g transform="matrix(0.402749,0,0,0.402749,2420.64,1654.36)">
                <g transform="matrix(800.517,0,0,800.517,5098.93,2110.82)">
                </g>
                <text x="444.755px" y="2110.82px" style="font-family:'SFProDisplay-BlackItalic', 'SF Pro Display';font-weight:900;font-style:italic;font-size:800.517px;">R<tspan x="981.821px " y="2110.82px ">e</tspan>adyNorm</text>
            </g>
            <g transform="matrix(0.565171,0,0,0.565171,1542.85,578.146)">
                <g transform="matrix(1.54772,0,0,1.54772,1332.83,712.391)">
                    <path d="M1497.49,651.875C1520.6,696.41 1543.71,740.945 1566.82,785.479C1554.91,843.134 1543.01,900.788 1531.11,958.443C1480.49,862.059 1429.87,765.675 1379.25,669.292C1337.98,672.413 1295.77,674.29 1273.73,674.834L1260.11,675.038L1236.65,675.038C1222.75,742.413 1208.84,809.787 1194.93,877.162L1079.23,877.162C1112.55,715.771 1145.86,554.381 1179.18,392.99L1422.7,392.99C1444.2,392.99 1515.28,393.232 1553.49,406.035C1571.28,411.997 1595.29,424.344 1610.56,452.438C1626.71,482.154 1623.25,512.139 1619.82,528.73C1612.75,562.963 1594.89,593.956 1563.33,618.728C1536.63,639.675 1505.88,649.306 1497.49,651.875ZM1462.44,584.328C1472.28,579.038 1478.83,572.565 1480.08,571.334C1488.6,562.933 1496.05,550.814 1499.31,535.005C1500.18,530.771 1504.45,510.683 1492.02,495.538C1479.42,480.193 1456.41,477.136 1452.35,476.548C1438.62,474.896 1374.99,474.896 1368.27,474.896L1277.97,474.896C1269.52,515.849 1261.06,556.803 1252.61,597.756L1338.21,597.756C1347.08,597.756 1420.48,598.024 1443.41,591.811C1453.72,589.018 1461,585.103 1462.44,584.328ZM1294.73,573.112C1299.4,550.446 1304.08,527.78 1308.76,505.115L1421.34,505.115C1431.38,524.472 1441.42,543.829 1451.47,563.186C1450.53,563.753 1445.89,566.568 1438.85,568.476C1422.73,572.843 1374.81,573.112 1343.3,573.112C1327.11,573.112 1310.92,573.112 1294.73,573.112ZM1377.3,693.787C1356.97,792.287 1336.63,890.787 1316.3,989.286L1208.81,989.286C1228.75,892.685 1248.69,796.083 1268.64,699.482C1291.07,698.937 1334.6,697.019 1377.3,693.787ZM1659.84,505.115L1763.35,505.115C1730.04,666.505 1696.72,827.896 1663.4,989.286L1559.88,989.286C1593.2,827.896 1626.52,666.505 1659.84,505.115Z"/>
                </g>
                <g transform="matrix(27.8565,0,0,27.8565,2362.27,-2611.17)">
                    <path d="M41.026,191.115C41.026,191.115 33.087,184.714 30.032,183.704C17.841,179.728 14.489,170.437 15.552,164.586C16.127,161.299 17.307,151.134 17.307,148.018C17.307,147.143 16.832,146.167 16.351,145.281C15.44,143.601 14.303,142.246 14.303,142.246L12.977,140.668L19.972,130.839L65.387,130.839L72.382,140.668L71.056,142.246C71.056,142.246 69.919,143.601 69.008,145.281C68.527,146.167 68.052,147.143 68.052,148.018C68.052,151.132 69.234,161.299 69.838,164.582L69.84,164.591C70.872,170.437 67.518,179.728 55.327,183.705C52.265,184.722 44.333,191.115 44.333,191.115L42.679,192.425L41.026,191.115ZM42.68,185.68C45.482,183.575 51.107,179.491 53.671,178.644L53.676,178.643C62.343,175.817 65.327,169.684 64.598,165.526C63.96,162.052 62.728,151.31 62.728,148.018C62.728,146.355 63.413,144.429 64.327,142.744C64.781,141.905 65.28,141.129 65.722,140.492L62.641,136.163L22.718,136.163L19.637,140.492C20.079,141.129 20.578,141.905 21.032,142.744C21.946,144.429 22.631,146.355 22.631,148.018C22.631,151.309 21.401,162.055 20.794,165.523L20.792,165.533C20.032,169.689 23.017,175.817 31.691,178.644L31.695,178.646C34.254,179.49 39.878,183.575 42.68,185.68Z"/>
                </g>
            </g>
        </g>
    </g>
</svg>
