<?xml version="1.0" encoding="UTF-8" standalone="no"?>
<!DOCTYPE svg PUBLIC "-//W3C//DTD SVG 1.1//EN" "http://www.w3.org/Graphics/SVG/1.1/DTD/svg11.dtd">
<svg width="100%" height="100%" viewBox="0 0 2603 656" version="1.1" xmlns="http://www.w3.org/2000/svg" xmlns:xlink="http://www.w3.org/1999/xlink" xml:space="preserve" xmlns:serif="http://www.serif.com/" style="fill-rule:evenodd;clip-rule:evenodd;stroke-linejoin:round;stroke-miterlimit:2;">
    <g id="readynorm-logo-sideways" transform="matrix(0.75316,0,0,0.239988,0,0)">
        <rect x="0" y="0" width="3454.84" height="2730.51" style="fill:none;"/>
        <g transform="matrix(0.570956,0,0,1.79185,-418.669,-2319.55)">
            <g transform="matrix(1,0,0,1,45.0677,1294.71)">
                <path d="M1497.49,651.875C1520.6,696.41 1543.71,740.945 1566.82,785.479C1554.91,843.134 1543.01,900.788 1531.11,958.443C1480.49,862.059 1429.87,765.675 1379.25,669.292C1337.98,672.413 1295.77,674.29 1273.73,674.834L1260.11,675.038L1236.65,675.038C1222.75,742.413 1208.84,809.787 1194.93,877.162L1079.23,877.162C1112.55,715.771 1145.86,554.381 1179.18,392.99L1422.7,392.99C1444.2,392.99 1515.28,393.232 1553.49,406.035C1571.28,411.997 1595.29,424.344 1610.56,452.438C1626.71,482.154 1623.25,512.139 1619.82,528.73C1612.75,562.963 1594.89,593.956 1563.33,618.728C1536.63,639.675 1505.88,649.306 1497.49,651.875ZM1462.44,584.328C1472.28,579.038 1478.83,572.565 1480.08,571.334C1488.6,562.933 1496.05,550.814 1499.31,535.005C1500.18,530.771 1504.45,510.683 1492.02,495.538C1479.42,480.193 1456.41,477.136 1452.35,476.548C1438.62,474.896 1374.99,474.896 1368.27,474.896L1277.97,474.896C1269.52,515.849 1261.06,556.803 1252.61,597.756L1338.21,597.756C1347.08,597.756 1420.48,598.024 1443.41,591.811C1453.72,589.018 1461,585.103 1462.44,584.328ZM1294.73,573.112C1299.4,550.446 1304.08,527.78 1308.76,505.115L1421.34,505.115C1431.38,524.472 1441.42,543.829 1451.47,563.186C1450.53,563.753 1445.89,566.568 1438.85,568.476C1422.73,572.843 1374.81,573.112 1343.3,573.112C1327.11,573.112 1310.92,573.112 1294.73,573.112ZM1377.3,693.787C1356.97,792.287 1336.63,890.787 1316.3,989.286L1208.81,989.286C1228.75,892.685 1248.69,796.083 1268.64,699.482C1291.07,698.937 1334.6,697.019 1377.3,693.787ZM1659.84,505.115L1763.35,505.115C1730.04,666.505 1696.72,827.896 1663.4,989.286L1559.88,989.286C1593.2,827.896 1626.52,666.505 1659.84,505.115Z"/>
            </g>
            <g transform="matrix(17.9983,0,0,17.9983,710.198,-852.679)">
                <path d="M41.026,191.115C41.026,191.115 33.087,184.714 30.032,183.704C17.841,179.728 14.489,170.437 15.552,164.586C16.127,161.299 17.307,151.134 17.307,148.018C17.307,147.143 16.832,146.167 16.351,145.281C15.44,143.601 14.303,142.246 14.303,142.246L12.977,140.668L19.972,130.839L65.387,130.839L72.382,140.668L71.056,142.246C71.056,142.246 69.919,143.601 69.008,145.281C68.527,146.167 68.052,147.143 68.052,148.018C68.052,151.132 69.234,161.299 69.838,164.582L69.84,164.591C70.872,170.437 67.518,179.728 55.327,183.705C52.265,184.722 44.333,191.115 44.333,191.115L42.679,192.425L41.026,191.115ZM42.68,185.68C45.482,183.575 51.107,179.491 53.671,178.644L53.676,178.643C62.343,175.817 65.327,169.684 64.598,165.526C63.96,162.052 62.728,151.31 62.728,148.018C62.728,146.355 63.413,144.429 64.327,142.744C64.781,141.905 65.28,141.129 65.722,140.492L62.641,136.163L22.718,136.163L19.637,140.492C20.079,141.129 20.578,141.905 21.032,142.744C21.946,144.429 22.631,146.355 22.631,148.018C22.631,151.309 21.401,162.055 20.794,165.523L20.792,165.533C20.032,169.689 23.017,175.817 31.691,178.644L31.695,178.646C34.254,179.49 39.878,183.575 42.68,185.68Z"/>
            </g>
        </g>
        <g transform="matrix(0.534745,0,0,1.67821,609.503,-1836.69)">
            <path d="M681.627,1808.29L711.725,1669.13L775.047,1669.13C820.779,1669.13 845.796,1689.07 845.796,1728.94C845.796,1775.06 811.007,1808.29 755.503,1808.29L681.627,1808.29ZM571.791,1546.79L451.791,2110.82L617.523,2110.82L657.784,1921.64L716.024,1921.64L769.184,2110.82L941.951,2110.82L879.411,1906C965.404,1872.39 1011.92,1795 1011.92,1715.26C1011.92,1618.71 944.297,1546.79 825.47,1546.79L571.791,1546.79Z" style="fill-rule:nonzero;"/>
            <path d="M1167.1,1844.25C1177.26,1803.2 1211.27,1775.45 1251.53,1775.45C1288.66,1775.45 1314.46,1798.9 1314.46,1831.74C1314.46,1836.04 1314.07,1842.29 1313.29,1844.25L1167.1,1844.25ZM1217.91,2121.38C1332.83,2121.38 1414.91,2060.79 1437.19,1970.11L1293.35,1970.11C1285.92,1995.12 1259.74,2012.32 1225.73,2012.32C1179.21,2012.32 1151.85,1981.05 1151.85,1941.18C1151.85,1937.28 1152.24,1932.98 1153.03,1928.67L1446.96,1928.67C1452.44,1906.79 1454.78,1877.86 1454.78,1854.41C1454.78,1741.84 1374.26,1668.35 1258.56,1668.35C1111.59,1668.35 1013.87,1776.23 1013.87,1923.99C1013.87,2048.28 1094.39,2121.38 1217.91,2121.38Z" style="fill-rule:nonzero;"/>
            <path d="M1671.33,2012.32C1642.4,2012.32 1622.47,1998.25 1622.47,1977.14C1622.47,1952.52 1645.92,1935.71 1681.1,1934.93L1747.94,1933.37L1742.08,1961.12C1735.82,1990.43 1705.34,2012.32 1671.33,2012.32ZM1599.02,2117.08C1653.35,2117.08 1697.52,2094.02 1718.62,2060.01L1721.75,2060.01L1710.81,2110.82L1861.3,2110.82L1919.93,1834.87C1921.88,1826.27 1923.44,1811.02 1923.44,1800.08C1923.44,1721.51 1845.66,1668.35 1731.13,1668.35C1620.9,1668.35 1539.6,1723.47 1522.4,1813.76L1661.95,1813.76C1669.77,1791.09 1691.26,1779.36 1720.19,1779.36C1751.46,1779.36 1772.57,1792.65 1772.57,1812.59C1772.57,1815.32 1772.17,1818.06 1771,1824.7L1765.92,1849.72L1671.72,1851.67C1548.98,1854.41 1473.55,1910.69 1473.55,2000.21C1473.55,2067.44 1527.49,2117.08 1599.02,2117.08Z" style="fill-rule:nonzero;"/>
            <path d="M2097.78,2117.08C2156.02,2117.08 2199.8,2095.19 2231.46,2050.24L2234.58,2050.24L2221.68,2110.82L2372.56,2110.82L2492.95,1546.79L2337.77,1546.79L2294.78,1748.48L2291.65,1748.48C2277.19,1700.79 2232.63,1673.04 2170.09,1673.04C2046.18,1673.04 1954.32,1792.65 1954.32,1953.3C1954.32,2054.54 2009.44,2117.08 2097.78,2117.08ZM2174.78,1999.42C2138.82,1999.42 2114.58,1970.11 2114.58,1926.72C2114.58,1853.24 2156.02,1794.6 2207.61,1794.6C2243.57,1794.6 2267.42,1823.53 2267.42,1866.92C2267.42,1937.66 2224.42,1999.42 2174.78,1999.42Z" style="fill-rule:nonzero;"/>
            <path d="M2472.63,2269.13C2604.74,2269.13 2684.48,2221.83 2746.24,2103.79L2968.26,1679.3L2803.31,1679.3L2664.94,1995.12L2661.81,1995.12L2662.2,1679.3L2503.12,1679.3L2546.5,2103.01C2546.89,2104.96 2546.89,2108.87 2546.89,2112C2546.89,2137.4 2524.22,2149.91 2479.66,2149.91L2438.23,2149.91L2413.21,2269.13L2472.63,2269.13Z" style="fill-rule:nonzero;"/>
            <path d="M3080.05,2110.82L3145.33,1801.25L3148.45,1801.25L3302.07,2110.82L3427.15,2110.82L3547.15,1546.79L3388.84,1546.79L3323.57,1856.36L3320.44,1856.36L3166.83,1546.79L3041.74,1546.79L2921.74,2110.82L3080.05,2110.82Z" style="fill-rule:nonzero;"/>
            <path d="M3751.58,2003.33C3716.4,2003.33 3692.95,1970.89 3692.95,1922.81C3692.95,1844.64 3732.43,1786.79 3785.97,1786.79C3821.15,1786.79 3844.22,1818.84 3844.22,1867.31C3844.22,1943.92 3803.96,2003.33 3751.58,2003.33ZM3793.79,1668.35C3642.91,1668.35 3535.81,1775.45 3535.81,1925.94C3535.81,2042.81 3620.24,2121.77 3744.54,2121.77C3895.42,2121.77 4002.52,2014.67 4002.52,1864.18C4002.52,1747.31 3918.09,1668.35 3793.79,1668.35Z" style="fill-rule:nonzero;"/>
            <path d="M4009.17,2110.82L4164.34,2110.82L4212.03,1890.37C4224.93,1830.96 4262.06,1802.42 4313.27,1802.42C4339.46,1802.42 4358.22,1809.07 4378.15,1818.45L4407.47,1684.38C4390.27,1676.56 4372.68,1673.04 4348.06,1673.04C4301.54,1673.04 4263.24,1701.58 4243.69,1741.84L4240.57,1741.84L4253.07,1679.3L4101.8,1679.3L4009.17,2110.82Z" style="fill-rule:nonzero;"/>
            <path d="M4358.61,2110.82L4512.62,2110.82L4566.95,1854.8C4575.94,1812.98 4599.78,1788.74 4631.44,1788.74C4659.59,1788.74 4677.57,1807.89 4677.57,1837.99C4677.57,1846.2 4676.78,1854.41 4674.83,1864.18L4623.23,2110.82L4770.2,2110.82L4823.76,1854.41C4832.35,1813.37 4856.59,1788.74 4888.25,1788.74C4916.39,1788.74 4934.37,1807.89 4934.37,1837.99C4934.37,1846.2 4933.59,1854.41 4931.64,1864.18L4880.04,2110.82L5034.05,2110.82L5090.33,1842.68C5094.24,1823.92 5096.2,1805.94 5096.2,1789.91C5096.2,1719.16 5046.16,1668.35 4976.59,1668.35C4914.83,1668.35 4864.41,1697.67 4831.96,1744.96L4828.84,1744.96C4813.98,1697.28 4772.94,1668.35 4720.56,1668.35C4666.62,1668.35 4616.2,1698.06 4588.45,1747.7L4585.32,1747.7L4600.17,1679.3L4450.47,1679.3L4358.61,2110.82Z" style="fill-rule:nonzero;"/>
        </g>
    </g>
</svg>
